<?xml version="1.0" encoding="utf-8"?>
<!-- Generator: Adobe Illustrator 24.0.1, SVG Export Plug-In . SVG Version: 6.00 Build 0)  -->
<!DOCTYPE svg PUBLIC "-//W3C//DTD SVG 1.1//EN" "http://www.w3.org/Graphics/SVG/1.1/DTD/svg11.dtd" [
	<!ENTITY ns_extend "http://ns.adobe.com/Extensibility/1.0/">
	<!ENTITY ns_ai "http://ns.adobe.com/AdobeIllustrator/10.0/">
	<!ENTITY ns_graphs "http://ns.adobe.com/Graphs/1.0/">
	<!ENTITY ns_vars "http://ns.adobe.com/Variables/1.0/">
	<!ENTITY ns_imrep "http://ns.adobe.com/ImageReplacement/1.0/">
	<!ENTITY ns_sfw "http://ns.adobe.com/SaveForWeb/1.0/">
	<!ENTITY ns_custom "http://ns.adobe.com/GenericCustomNamespace/1.0/">
	<!ENTITY ns_adobe_xpath "http://ns.adobe.com/XPath/1.0/">
]>
<svg version="1.1" id="Layer_1" xmlns:x="&ns_extend;" xmlns:i="&ns_ai;" xmlns:graph="&ns_graphs;"
	 xmlns="http://www.w3.org/2000/svg" xmlns:xlink="http://www.w3.org/1999/xlink" x="0px" y="0px" viewBox="0 0 293 115"
	 style="enable-background:new 0 0 293 115;" xml:space="preserve">
<style type="text/css">
	.st0{fill:#95D1D4;}
	.st1{fill:#FCC308;}
	.st2{fill:#EA5C23;}
	.st3{fill:#EB6160;}
	.st4{fill:#C7C636;}
	.st5{fill:#C53280;}
	.st6{fill:#F4F5D3;}
	.st7{fill:#63B885;}
	.st8{fill:#85C389;}
	.st9{fill:#878787;}
</style>
<metadata>
	<sfw  xmlns="&ns_sfw;">
		<slices></slices>
		<sliceSourceBounds  bottomLeftOrigin="true" height="69" width="233.3" x="31.3" y="-95.6"></sliceSourceBounds>
	</sfw>
</metadata>
<g>
	<g>
		<polygon class="st0" points="60.3,55.5 52.7,48 52.8,48.1 52.8,48.1 60.2,55.6 		"/>
		<polygon class="st0" points="52.7,48 52.5,47.8 52.5,47.8 52.8,48.1 52.8,48.1 		"/>
		<polygon class="st1" points="60.3,55.6 60.3,55.5 60.2,55.6 60.3,55.6 		"/>
		<path class="st2" d="M83.7,47.9L82.8,47c-4.3-3.5-10.7-3.2-14.7,0.8l0,0l0,0c4.3,4.3,4.3,11.3,0,15.6l0,0l0,0
			c4,4,10.4,4.3,14.7,0.8l0.9-0.9c2.1-2.1,3.2-4.9,3.2-7.8C86.9,52.8,85.9,50,83.7,47.9z"/>
		<path class="st3" d="M65.7,29.8c-4.3-4.3-11.3-4.3-15.6,0l0,0l17.9,17.9h0l0-0.1c0,0,0,0,0,0c4-4,10.4-4.3,14.7-0.8L65.7,29.8z"/>
		<path class="st1" d="M47.7,33.5c-1.6,4-0.8,8.7,2.4,11.9l2.4,2.4l0,0l-2.4-2.4C46.9,42.2,46.1,37.5,47.7,33.5z"/>
		<path class="st4" d="M60.3,55.6L60.3,55.6L60.3,55.6l-7.8,7.8l0.1,0.1c4,4,10.3,4.3,14.6,0.9l0.9-0.9L60.3,55.6z"/>
		<path class="st5" d="M67.1,46.8c-4.3-3.4-10.6-3.1-14.6,0.9l0,0l7.8,7.8l0,0l7.8-7.8L67.1,46.8z"/>
		<path class="st6" d="M69,48.7c3.4,4.3,3.1,10.6-0.9,14.6l0,0l-7.8-7.8l0,0l7.8-7.8L69,48.7z"/>
		<path class="st5" d="M50.1,29.8L50.1,29.8c-1.1,1.1-1.9,2.3-2.4,3.6c-1.6,4-0.8,8.7,2.4,11.9l2.4,2.4l0,0c4-4,10.3-4.3,14.6-0.9
			l0.9,0.9l0,0L50.1,29.8z"/>
		<path class="st7" d="M50.1,29.8L50.1,29.8L50.1,29.8c-4.3-4.3-11.3-4.3-15.6,0l0,0c-4.3,4.3-4.3,11.3,0,15.6l10.2,10.2l7.8-7.8
			l-2.4-2.4C45.8,41.1,45.8,34.1,50.1,29.8z"/>
		<polygon class="st0" points="52.7,63.1 52.5,63.3 52.5,63.3 52.8,63 52.8,63 		"/>
		<polygon class="st1" points="60.3,55.5 60.3,55.6 60.2,55.5 60.3,55.5 		"/>
		<path class="st1" d="M65.7,81.3c-4.3,4.3-11.3,4.3-15.6,0l0,0l17.9-17.9h0l0,0.1c0,0,0,0,0,0c4,4,10.4,4.3,14.7,0.8L65.7,81.3z"/>
		<path class="st1" d="M47.7,77.6c-1.6-4-0.8-8.7,2.4-11.9l2.4-2.4l0,0l-2.4,2.4C46.9,68.9,46.1,73.6,47.7,77.6z"/>
		<path class="st4" d="M50.1,81.3L50.1,81.3c-1.1-1.1-1.9-2.3-2.4-3.6c-1.6-4-0.8-8.7,2.4-11.9l2.4-2.4l0,0c4,4,10.3,4.3,14.6,0.9
			l0.9-0.9l0,0L50.1,81.3z"/>
		<path class="st0" d="M50.1,81.3L50.1,81.3L50.1,81.3c-4.3,4.3-11.3,4.3-15.6,0l0,0c-4.3-4.3-4.3-11.3,0-15.6l10.2-10.1l7.8,7.8
			l-2.4,2.3C45.8,70,45.8,77,50.1,81.3z"/>
		<polygon class="st8" points="44.7,55.6 52.5,47.8 60.3,55.6 52.5,63.4 		"/>
	</g>
	<g>
		<path class="st9" d="M108.1,37.5v5.2h-5.7v14.1c0,1.3,0.2,2.2,0.7,2.6c0.4,0.4,1.3,0.7,2.6,0.7c0.4,0,0.9,0,1.3-0.1
			c0.4,0,0.8-0.1,1.2-0.2V66c-0.7,0.1-1.4,0.2-2.2,0.2c-0.8,0-1.6,0.1-2.4,0.1c-1.2,0-2.4-0.1-3.4-0.2c-1.1-0.2-2-0.5-2.9-1
			c-0.8-0.5-1.5-1.2-2-2c-0.5-0.9-0.7-2-0.7-3.5V42.7h-4.7v-5.2h4.7v-8.5h7.8v8.5H108.1z"/>
		<path class="st9" d="M119.3,37.5v5.3h0.1c0.4-0.9,0.9-1.7,1.5-2.5c0.6-0.8,1.3-1.4,2.2-1.9c0.8-0.5,1.7-0.9,2.6-1.2
			c0.9-0.3,1.9-0.4,2.9-0.4c0.5,0,1.1,0.1,1.7,0.3v7.3c-0.4-0.1-0.8-0.1-1.3-0.2c-0.5-0.1-1-0.1-1.5-0.1c-1.4,0-2.6,0.2-3.6,0.7
			c-1,0.5-1.8,1.1-2.4,2c-0.6,0.8-1,1.8-1.3,2.9c-0.3,1.1-0.4,2.3-0.4,3.6V66h-7.8V37.5H119.3z"/>
		<path class="st9" d="M133.5,33v-6.5h7.8V33H133.5z M141.4,37.5V66h-7.8V37.5H141.4z"/>
		<path class="st9" d="M146.7,64.2V37.5h7.4v3.8h0.1c1-1.7,2.1-2.8,3.6-3.5c1.4-0.7,3.1-1,4.9-1c2,0,3.7,0.4,5.3,1.2
			c1.5,0.8,2.8,1.8,3.8,3.1c1,1.3,1.8,2.8,2.3,4.5c0.5,1.7,0.8,3.5,0.8,5.3c0,1.9-0.2,3.8-0.7,5.5c-0.5,1.7-1.2,3.3-2.2,4.6
			c-1,1.3-2.3,2.3-3.8,3.1c-1.5,0.8-3.4,1.1-5.5,1.1c-1.7,0-3.4-0.4-4.9-1.1c-1.6-0.7-2.8-1.8-3.6-3.3h-0.1v3.8c0,2,0.5,3.7,1.5,5
			c1,1.3,2.6,2,4.8,2c1.4,0,2.6-0.3,3.7-0.9c1.1-0.6,1.8-1.6,2.2-3.1h7.8c-0.1,1.6-0.6,3-1.4,4.2c-0.8,1.2-1.8,2.1-3,2.8
			c-1.2,0.7-2.5,1.3-4,1.6c-1.5,0.3-2.9,0.5-4.3,0.5c-3.3,0-5.9-0.4-7.8-1.3c-1.9-0.9-3.4-2-4.5-3.2c-1-1.3-1.7-2.6-2-4.1
			C146.8,66.6,146.7,65.3,146.7,64.2z M160.8,59.2c1.2,0,2.2-0.3,3-0.8c0.8-0.5,1.5-1.2,2-2c0.5-0.8,0.8-1.7,1-2.7
			c0.2-1,0.3-2,0.3-3.1c0-1.1-0.1-2.1-0.4-3.1c-0.2-1-0.6-1.8-1.2-2.6c-0.5-0.8-1.2-1.4-2-1.8c-0.8-0.4-1.7-0.7-2.8-0.7
			c-1.3,0-2.4,0.2-3.2,0.7c-0.8,0.5-1.5,1.1-2,1.9c-0.5,0.8-0.9,1.7-1.1,2.8c-0.2,1-0.3,2.2-0.3,3.3c0,1,0.1,2,0.4,3
			c0.3,0.9,0.7,1.8,1.2,2.5c0.6,0.7,1.3,1.3,2.1,1.8C158.7,59,159.7,59.2,160.8,59.2z"/>
		<path class="st9" d="M206.3,68.1c-0.3,1.5-1,2.8-2,4.1c-1,1.3-2.5,2.3-4.5,3.2c-1.9,0.9-4.6,1.3-7.8,1.3c-1.4,0-2.8-0.2-4.3-0.5
			c-1.5-0.3-2.8-0.9-4-1.6c-1.2-0.7-2.2-1.7-3-2.8c-0.8-1.2-1.2-2.5-1.4-4.2h7.8c0.4,1.5,1.1,2.5,2.2,3.1c1.1,0.6,2.3,0.9,3.7,0.9
			c2.2,0,3.8-0.7,4.8-2c1-1.3,1.5-3,1.5-5v-3.8h-0.1c-0.8,1.5-2.1,2.6-3.6,3.3c-1.6,0.7-3.2,1.1-4.9,1.1c-2.1,0-4-0.4-5.5-1.1
			c-1.5-0.8-2.8-1.8-3.8-3.1c-1-1.3-1.7-2.8-2.2-4.6c-0.5-1.7-0.7-3.6-0.7-5.5c0-1.8,0.3-3.6,0.8-5.3c0.5-1.7,1.3-3.2,2.3-4.5
			c1-1.3,2.3-2.3,3.8-3.1c1.5-0.8,3.3-1.2,5.3-1.2c1.9,0,3.5,0.3,4.9,1c1.4,0.7,2.6,1.9,3.6,3.5h0.1v-3.8h7.4v26.7
			C206.7,65.3,206.6,66.6,206.3,68.1z M195.5,58.6c0.8-0.4,1.5-1,2.1-1.8c0.6-0.7,1-1.6,1.2-2.5c0.3-0.9,0.4-1.9,0.4-3
			c0-1.2-0.1-2.3-0.3-3.3c-0.2-1-0.6-2-1.1-2.8c-0.5-0.8-1.2-1.5-2-1.9c-0.8-0.5-1.9-0.7-3.2-0.7c-1.1,0-2.1,0.2-2.8,0.7
			c-0.8,0.4-1.5,1-2,1.8c-0.5,0.8-0.9,1.6-1.2,2.6c-0.2,1-0.4,2-0.4,3.1c0,1,0.1,2.1,0.3,3.1c0.2,1,0.6,1.9,1,2.7
			c0.5,0.8,1.1,1.5,2,2c0.8,0.5,1.8,0.8,3,0.8C193.7,59.2,194.7,59,195.5,58.6z"/>
		<path class="st9" d="M221.4,59.1c1.2,1.1,2.9,1.7,5.1,1.7c1.6,0,2.9-0.4,4.1-1.2c1.1-0.8,1.8-1.6,2.1-2.5h6.9
			c-1.1,3.4-2.8,5.9-5.1,7.3c-2.3,1.5-5,2.2-8.3,2.2c-2.2,0-4.3-0.4-6.1-1.1c-1.8-0.7-3.3-1.7-4.6-3.1c-1.3-1.3-2.2-2.9-2.9-4.7
			c-0.7-1.8-1-3.9-1-6.1c0-2.1,0.3-4.1,1-6c0.7-1.8,1.7-3.4,3-4.8c1.3-1.3,2.8-2.4,4.6-3.2c1.8-0.8,3.8-1.2,5.9-1.2
			c2.4,0,4.5,0.5,6.3,1.4c1.8,0.9,3.3,2.2,4.4,3.8c1.2,1.6,2,3.4,2.5,5.4c0.5,2,0.7,4.1,0.6,6.3h-20.6
			C219.6,56.2,220.2,58,221.4,59.1z M230.3,44.1c-0.9-1-2.4-1.5-4.3-1.5c-1.3,0-2.3,0.2-3.1,0.6c-0.8,0.4-1.5,0.9-2,1.6
			c-0.5,0.6-0.8,1.3-1,2c-0.2,0.7-0.3,1.3-0.4,1.9h12.7C231.8,46.7,231.2,45.2,230.3,44.1z"/>
		<path class="st9" d="M252.1,37.5v5.3h0.1c0.4-0.9,0.9-1.7,1.5-2.5c0.6-0.8,1.3-1.4,2.2-1.9c0.8-0.5,1.7-0.9,2.6-1.2
			c0.9-0.3,1.9-0.4,2.9-0.4c0.5,0,1.1,0.1,1.7,0.3v7.3c-0.4-0.1-0.8-0.1-1.3-0.2s-1-0.1-1.5-0.1c-1.4,0-2.6,0.2-3.6,0.7
			c-1,0.5-1.8,1.1-2.4,2c-0.6,0.8-1,1.8-1.3,2.9s-0.4,2.3-0.4,3.6V66h-7.8V37.5H252.1z"/>
		<g>
			<path class="st9" d="M178.5,80.8v-1.1h4.8v1.1h-1.8v4.8h-1.3v-4.8H178.5z"/>
			<path class="st9" d="M187.2,79.7c0.3,0,0.5,0,0.7,0.1c0.2,0.1,0.4,0.2,0.5,0.4c0.2,0.1,0.3,0.3,0.3,0.5c0.1,0.2,0.1,0.4,0.1,0.6
				c0,0.3-0.1,0.6-0.2,0.9c-0.1,0.3-0.4,0.4-0.7,0.6v0c0.2,0,0.3,0.1,0.4,0.2c0.1,0.1,0.2,0.2,0.3,0.3c0.1,0.1,0.1,0.3,0.1,0.4
				c0,0.1,0.1,0.3,0.1,0.4c0,0.1,0,0.2,0,0.3c0,0.1,0,0.3,0,0.4c0,0.1,0,0.3,0.1,0.4c0,0.1,0.1,0.2,0.1,0.3h-1.3
				c-0.1-0.2-0.1-0.4-0.1-0.7c0-0.3,0-0.5-0.1-0.7c0-0.3-0.1-0.5-0.3-0.7c-0.1-0.1-0.4-0.2-0.7-0.2h-1.3v2.3H184v-5.9H187.2z
				 M186.7,82.4c0.3,0,0.5-0.1,0.7-0.2c0.1-0.1,0.2-0.3,0.2-0.6c0-0.3-0.1-0.5-0.2-0.6c-0.1-0.1-0.4-0.2-0.7-0.2h-1.4v1.7H186.7z"/>
			<path class="st9" d="M192.9,79.7l2.2,5.9h-1.3l-0.4-1.3h-2.2l-0.5,1.3h-1.3l2.2-5.9H192.9z M193,83.3l-0.7-2.2h0l-0.8,2.2H193z"
				/>
			<path class="st9" d="M196.9,79.7l2.5,3.9h0v-3.9h1.2v5.9h-1.3l-2.4-3.9h0v3.9h-1.2v-5.9H196.9z"/>
			<path class="st9" d="M202.7,84.1c0.1,0.1,0.2,0.2,0.3,0.3c0.1,0.1,0.3,0.1,0.4,0.2c0.2,0,0.3,0.1,0.5,0.1c0.1,0,0.2,0,0.4,0
				c0.1,0,0.3-0.1,0.4-0.1s0.2-0.1,0.3-0.2c0.1-0.1,0.1-0.2,0.1-0.4c0-0.2-0.1-0.3-0.2-0.4c-0.1-0.1-0.2-0.2-0.4-0.2
				c-0.2-0.1-0.4-0.1-0.6-0.2c-0.2,0-0.4-0.1-0.6-0.2c-0.2-0.1-0.4-0.1-0.6-0.2s-0.4-0.2-0.6-0.3c-0.2-0.1-0.3-0.3-0.4-0.5
				c-0.1-0.2-0.2-0.4-0.2-0.7c0-0.3,0.1-0.6,0.2-0.8c0.1-0.2,0.3-0.4,0.5-0.6c0.2-0.1,0.4-0.3,0.7-0.3c0.3-0.1,0.5-0.1,0.8-0.1
				c0.3,0,0.6,0,0.9,0.1c0.3,0.1,0.5,0.2,0.8,0.3c0.2,0.2,0.4,0.3,0.5,0.6s0.2,0.5,0.2,0.9h-1.3c0-0.2,0-0.3-0.1-0.4
				c-0.1-0.1-0.1-0.2-0.3-0.3c-0.1-0.1-0.2-0.1-0.4-0.1c-0.1,0-0.3,0-0.4,0c-0.1,0-0.2,0-0.3,0c-0.1,0-0.2,0.1-0.3,0.1
				c-0.1,0.1-0.2,0.1-0.2,0.2c-0.1,0.1-0.1,0.2-0.1,0.3c0,0.1,0,0.2,0.1,0.3c0,0.1,0.1,0.1,0.3,0.2s0.3,0.1,0.5,0.2
				c0.2,0.1,0.5,0.1,0.9,0.2c0.1,0,0.3,0.1,0.5,0.1c0.2,0.1,0.4,0.1,0.6,0.3c0.2,0.1,0.4,0.3,0.5,0.5c0.1,0.2,0.2,0.5,0.2,0.8
				c0,0.3-0.1,0.5-0.2,0.7s-0.3,0.4-0.5,0.6c-0.2,0.2-0.5,0.3-0.8,0.4c-0.3,0.1-0.7,0.1-1.1,0.1c-0.3,0-0.6,0-0.9-0.1
				c-0.3-0.1-0.6-0.2-0.8-0.4c-0.2-0.2-0.4-0.4-0.6-0.7c-0.1-0.3-0.2-0.6-0.2-0.9h1.3C202.6,83.8,202.6,84,202.7,84.1z"/>
			<path class="st9" d="M209.6,79.7c0.4,0,0.7,0.1,1.1,0.2c0.3,0.1,0.6,0.3,0.8,0.5c0.2,0.2,0.4,0.5,0.6,0.9
				c0.1,0.4,0.2,0.8,0.2,1.3c0,0.4-0.1,0.8-0.2,1.2c-0.1,0.4-0.3,0.7-0.5,0.9c-0.2,0.3-0.5,0.5-0.8,0.6c-0.3,0.2-0.7,0.2-1.2,0.2
				H207v-5.9H209.6z M209.5,84.5c0.2,0,0.4,0,0.5-0.1s0.3-0.2,0.5-0.3c0.1-0.1,0.2-0.3,0.3-0.5c0.1-0.2,0.1-0.5,0.1-0.8
				c0-0.3,0-0.6-0.1-0.8c-0.1-0.2-0.2-0.4-0.3-0.6c-0.1-0.2-0.3-0.3-0.5-0.4c-0.2-0.1-0.5-0.1-0.8-0.1h-0.9v3.7H209.5z"/>
			<path class="st9" d="M214.4,79.7v5.9h-1.3v-5.9H214.4z"/>
			<path class="st9" d="M216.5,84.1c0.1,0.1,0.2,0.2,0.3,0.3c0.1,0.1,0.3,0.1,0.4,0.2c0.2,0,0.3,0.1,0.5,0.1c0.1,0,0.2,0,0.4,0
				c0.1,0,0.3-0.1,0.4-0.1c0.1-0.1,0.2-0.1,0.3-0.2c0.1-0.1,0.1-0.2,0.1-0.4c0-0.2-0.1-0.3-0.2-0.4c-0.1-0.1-0.2-0.2-0.4-0.2
				c-0.2-0.1-0.4-0.1-0.6-0.2c-0.2,0-0.4-0.1-0.6-0.2c-0.2-0.1-0.4-0.1-0.6-0.2c-0.2-0.1-0.4-0.2-0.6-0.3c-0.2-0.1-0.3-0.3-0.4-0.5
				c-0.1-0.2-0.2-0.4-0.2-0.7c0-0.3,0.1-0.6,0.2-0.8c0.1-0.2,0.3-0.4,0.5-0.6c0.2-0.1,0.4-0.3,0.7-0.3c0.3-0.1,0.5-0.1,0.8-0.1
				c0.3,0,0.6,0,0.9,0.1c0.3,0.1,0.5,0.2,0.8,0.3c0.2,0.2,0.4,0.3,0.5,0.6s0.2,0.5,0.2,0.9h-1.3c0-0.2,0-0.3-0.1-0.4
				c-0.1-0.1-0.1-0.2-0.3-0.3c-0.1-0.1-0.2-0.1-0.4-0.1c-0.1,0-0.3,0-0.4,0c-0.1,0-0.2,0-0.3,0c-0.1,0-0.2,0.1-0.3,0.1
				c-0.1,0.1-0.2,0.1-0.2,0.2c-0.1,0.1-0.1,0.2-0.1,0.3c0,0.1,0,0.2,0.1,0.3c0,0.1,0.1,0.1,0.3,0.2s0.3,0.1,0.5,0.2
				c0.2,0.1,0.5,0.1,0.9,0.2c0.1,0,0.3,0.1,0.5,0.1c0.2,0.1,0.4,0.1,0.6,0.3c0.2,0.1,0.4,0.3,0.5,0.5c0.1,0.2,0.2,0.5,0.2,0.8
				c0,0.3-0.1,0.5-0.2,0.7s-0.3,0.4-0.5,0.6c-0.2,0.2-0.5,0.3-0.8,0.4c-0.3,0.1-0.7,0.1-1.1,0.1c-0.3,0-0.6,0-0.9-0.1
				c-0.3-0.1-0.6-0.2-0.8-0.4c-0.2-0.2-0.4-0.4-0.6-0.7c-0.1-0.3-0.2-0.6-0.2-0.9h1.3C216.4,83.8,216.5,84,216.5,84.1z"/>
			<path class="st9" d="M224.7,81.3c-0.1-0.1-0.2-0.2-0.3-0.3c-0.1-0.1-0.2-0.2-0.4-0.2c-0.1-0.1-0.3-0.1-0.5-0.1
				c-0.3,0-0.5,0.1-0.7,0.2c-0.2,0.1-0.4,0.3-0.5,0.5c-0.1,0.2-0.2,0.4-0.3,0.6c-0.1,0.2-0.1,0.5-0.1,0.7c0,0.2,0,0.5,0.1,0.7
				c0.1,0.2,0.1,0.4,0.3,0.6c0.1,0.2,0.3,0.3,0.5,0.4c0.2,0.1,0.4,0.2,0.7,0.2c0.4,0,0.7-0.1,0.9-0.4c0.2-0.2,0.4-0.6,0.4-1h1.3
				c0,0.4-0.1,0.7-0.3,1c-0.1,0.3-0.3,0.5-0.5,0.8c-0.2,0.2-0.5,0.4-0.8,0.5c-0.3,0.1-0.6,0.2-1,0.2c-0.4,0-0.9-0.1-1.2-0.2
				c-0.4-0.2-0.7-0.4-0.9-0.6c-0.2-0.3-0.4-0.6-0.6-1c-0.1-0.4-0.2-0.8-0.2-1.2c0-0.4,0.1-0.8,0.2-1.2c0.1-0.4,0.3-0.7,0.6-1
				c0.2-0.3,0.5-0.5,0.9-0.7c0.4-0.2,0.8-0.2,1.2-0.2c0.3,0,0.6,0,0.9,0.1c0.3,0.1,0.5,0.2,0.8,0.4c0.2,0.2,0.4,0.4,0.6,0.7
				c0.1,0.3,0.2,0.6,0.3,0.9h-1.3C224.8,81.5,224.7,81.4,224.7,81.3z"/>
			<path class="st9" d="M228.3,79.7v5.9H227v-5.9H228.3z"/>
			<path class="st9" d="M232.1,79.7c0.4,0,0.7,0.1,0.9,0.2c0.3,0.1,0.5,0.2,0.6,0.4c0.2,0.2,0.3,0.4,0.4,0.6
				c0.1,0.2,0.1,0.5,0.1,0.7c0,0.2,0,0.5-0.1,0.7c-0.1,0.2-0.2,0.4-0.4,0.6c-0.2,0.2-0.4,0.3-0.6,0.4c-0.3,0.1-0.6,0.2-0.9,0.2h-1.4
				v2.1h-1.3v-5.9H232.1z M231.7,82.5c0.1,0,0.3,0,0.4,0c0.1,0,0.3-0.1,0.4-0.1c0.1-0.1,0.2-0.2,0.3-0.3c0.1-0.1,0.1-0.3,0.1-0.5
				c0-0.2,0-0.3-0.1-0.5c-0.1-0.1-0.1-0.2-0.3-0.3c-0.1-0.1-0.2-0.1-0.4-0.1c-0.1,0-0.3,0-0.4,0h-1v1.8H231.7z"/>
			<path class="st9" d="M236.2,79.7v4.8h2.9v1.1h-4.2v-5.9H236.2z"/>
			<path class="st9" d="M241.1,79.7v5.9h-1.3v-5.9H241.1z"/>
			<path class="st9" d="M243.5,79.7l2.5,3.9h0v-3.9h1.2v5.9h-1.3l-2.4-3.9h0v3.9h-1.2v-5.9H243.5z"/>
			<path class="st9" d="M251.2,79.7l2.2,5.9h-1.3l-0.4-1.3h-2.2l-0.5,1.3h-1.3l2.2-5.9H251.2z M251.3,83.3l-0.7-2.2h0l-0.8,2.2
				H251.3z"/>
			<path class="st9" d="M257.1,79.7c0.3,0,0.5,0,0.7,0.1c0.2,0.1,0.4,0.2,0.5,0.4c0.2,0.1,0.3,0.3,0.3,0.5c0.1,0.2,0.1,0.4,0.1,0.6
				c0,0.3-0.1,0.6-0.2,0.9c-0.1,0.3-0.4,0.4-0.7,0.6v0c0.2,0,0.3,0.1,0.4,0.2c0.1,0.1,0.2,0.2,0.3,0.3c0.1,0.1,0.1,0.3,0.1,0.4
				c0,0.1,0.1,0.3,0.1,0.4c0,0.1,0,0.2,0,0.3c0,0.1,0,0.3,0,0.4c0,0.1,0,0.3,0.1,0.4c0,0.1,0.1,0.2,0.1,0.3h-1.3
				c-0.1-0.2-0.1-0.4-0.1-0.7c0-0.3,0-0.5-0.1-0.7c0-0.3-0.1-0.5-0.3-0.7c-0.1-0.1-0.4-0.2-0.7-0.2h-1.3v2.3h-1.3v-5.9H257.1z
				 M256.7,82.4c0.3,0,0.5-0.1,0.7-0.2c0.1-0.1,0.2-0.3,0.2-0.6c0-0.3-0.1-0.5-0.2-0.6c-0.1-0.1-0.4-0.2-0.7-0.2h-1.4v1.7H256.7z"/>
			<path class="st9" d="M259,79.7h1.4l1.4,2.3l1.4-2.3h1.4l-2.2,3.6v2.3h-1.3v-2.3L259,79.7z"/>
			<path class="st9" d="M178.5,90.7v-1.1h4.8v1.1h-1.8v4.8h-1.3v-4.8H178.5z"/>
			<path class="st9" d="M189,89.6v1.1h-3.1v1.3h2.8v1h-2.8v1.4h3.2v1.1h-4.5v-5.9H189z"/>
			<path class="st9" d="M193.5,89.6l2.2,5.9h-1.3l-0.4-1.3h-2.2l-0.5,1.3H190l2.2-5.9H193.5z M193.6,93.2l-0.7-2.2h0l-0.8,2.2H193.6
				z"/>
			<path class="st9" d="M198.7,89.6l1.4,4h0l1.3-4h1.8v5.9H202v-4.2h0l-1.4,4.2h-1l-1.4-4.1h0v4.1h-1.2v-5.9H198.7z"/>
			<path class="st9" d="M211.3,95.4c-0.3,0.1-0.6,0.2-0.8,0.2c-0.4,0-0.9-0.1-1.2-0.2c-0.4-0.2-0.7-0.4-0.9-0.6
				c-0.2-0.3-0.4-0.6-0.6-1c-0.1-0.4-0.2-0.8-0.2-1.2c0-0.4,0.1-0.8,0.2-1.2c0.1-0.4,0.3-0.7,0.6-1c0.2-0.3,0.5-0.5,0.9-0.7
				c0.4-0.2,0.8-0.2,1.2-0.2c0.3,0,0.6,0,0.9,0.1c0.3,0.1,0.5,0.2,0.8,0.4c0.2,0.2,0.4,0.4,0.6,0.7c0.1,0.3,0.2,0.6,0.3,0.9h-1.2
				c-0.1-0.3-0.2-0.6-0.4-0.7c-0.2-0.2-0.5-0.2-0.8-0.2c-0.3,0-0.5,0.1-0.7,0.2c-0.2,0.1-0.4,0.3-0.5,0.5c-0.1,0.2-0.2,0.4-0.3,0.6
				c-0.1,0.2-0.1,0.5-0.1,0.7c0,0.2,0,0.5,0.1,0.7c0.1,0.2,0.1,0.4,0.3,0.6c0.1,0.2,0.3,0.3,0.5,0.4c0.2,0.1,0.4,0.2,0.7,0.2
				c0.4,0,0.8-0.1,1-0.3c0.2-0.2,0.4-0.5,0.4-0.9h-1.3v-1h2.5v3.2h-0.8l-0.1-0.7C211.8,95.1,211.6,95.3,211.3,95.4z"/>
			<path class="st9" d="M219.1,89.6v1.1H216v1.3h2.8v1H216v1.4h3.2v1.1h-4.5v-5.9H219.1z"/>
			<path class="st9" d="M221.9,89.6l2.5,3.9h0v-3.9h1.2v5.9h-1.3l-2.4-3.9h0v3.9h-1.2v-5.9H221.9z"/>
			<path class="st9" d="M231.7,89.6v1.1h-3.1v1.3h2.8v1h-2.8v1.4h3.2v1.1h-4.5v-5.9H231.7z"/>
			<path class="st9" d="M236.5,89.6c0.3,0,0.5,0,0.7,0.1c0.2,0.1,0.4,0.2,0.5,0.4c0.2,0.1,0.3,0.3,0.3,0.5c0.1,0.2,0.1,0.4,0.1,0.6
				c0,0.3-0.1,0.6-0.2,0.9c-0.1,0.3-0.4,0.4-0.7,0.6v0c0.2,0,0.3,0.1,0.4,0.2c0.1,0.1,0.2,0.2,0.3,0.3c0.1,0.1,0.1,0.3,0.1,0.4
				c0,0.1,0.1,0.3,0.1,0.4c0,0.1,0,0.2,0,0.3c0,0.1,0,0.3,0,0.4c0,0.1,0,0.3,0.1,0.4c0,0.1,0.1,0.2,0.1,0.3h-1.3
				c-0.1-0.2-0.1-0.4-0.1-0.7c0-0.3,0-0.5-0.1-0.7c0-0.3-0.1-0.5-0.3-0.7c-0.1-0.1-0.4-0.2-0.7-0.2h-1.3v2.3h-1.3v-5.9H236.5z
				 M236,92.2c0.3,0,0.5-0.1,0.7-0.2c0.1-0.1,0.2-0.3,0.2-0.6c0-0.3-0.1-0.5-0.2-0.6c-0.1-0.1-0.4-0.2-0.7-0.2h-1.4v1.7H236z"/>
			<path class="st9" d="M242.8,89.6l2.2,5.9h-1.3l-0.4-1.3H241l-0.5,1.3h-1.3l2.2-5.9H242.8z M242.9,93.2l-0.7-2.2h0l-0.8,2.2H242.9
				z"/>
			<path class="st9" d="M244.9,90.7v-1.1h4.8v1.1h-1.8v4.8h-1.3v-4.8H244.9z"/>
			<path class="st9" d="M250.9,91.3c0.1-0.4,0.3-0.7,0.6-1c0.2-0.3,0.5-0.5,0.9-0.7c0.4-0.2,0.8-0.2,1.2-0.2c0.5,0,0.9,0.1,1.2,0.2
				c0.4,0.2,0.7,0.4,0.9,0.7c0.2,0.3,0.4,0.6,0.6,1c0.1,0.4,0.2,0.8,0.2,1.2c0,0.4-0.1,0.8-0.2,1.2s-0.3,0.7-0.6,1
				c-0.2,0.3-0.5,0.5-0.9,0.6c-0.4,0.2-0.8,0.2-1.2,0.2c-0.4,0-0.9-0.1-1.2-0.2c-0.4-0.2-0.7-0.4-0.9-0.6c-0.2-0.3-0.4-0.6-0.6-1
				c-0.1-0.4-0.2-0.8-0.2-1.2C250.7,92.1,250.8,91.7,250.9,91.3z M252.1,93.3c0.1,0.2,0.1,0.4,0.3,0.6c0.1,0.2,0.3,0.3,0.5,0.4
				c0.2,0.1,0.4,0.2,0.7,0.2s0.5-0.1,0.7-0.2c0.2-0.1,0.4-0.3,0.5-0.4c0.1-0.2,0.2-0.4,0.3-0.6c0.1-0.2,0.1-0.5,0.1-0.7
				c0-0.3,0-0.5-0.1-0.7c-0.1-0.2-0.1-0.5-0.3-0.6c-0.1-0.2-0.3-0.3-0.5-0.5c-0.2-0.1-0.4-0.2-0.7-0.2s-0.5,0.1-0.7,0.2
				c-0.2,0.1-0.4,0.3-0.5,0.5c-0.1,0.2-0.2,0.4-0.3,0.6c-0.1,0.2-0.1,0.5-0.1,0.7C252,92.8,252.1,93,252.1,93.3z"/>
			<path class="st9" d="M261.2,89.6c0.3,0,0.5,0,0.7,0.1c0.2,0.1,0.4,0.2,0.5,0.4c0.2,0.1,0.3,0.3,0.3,0.5c0.1,0.2,0.1,0.4,0.1,0.6
				c0,0.3-0.1,0.6-0.2,0.9c-0.1,0.3-0.4,0.4-0.7,0.6v0c0.2,0,0.3,0.1,0.4,0.2c0.1,0.1,0.2,0.2,0.3,0.3c0.1,0.1,0.1,0.3,0.1,0.4
				c0,0.1,0.1,0.3,0.1,0.4c0,0.1,0,0.2,0,0.3c0,0.1,0,0.3,0,0.4c0,0.1,0,0.3,0.1,0.4c0,0.1,0.1,0.2,0.1,0.3h-1.3
				c-0.1-0.2-0.1-0.4-0.1-0.7c0-0.3,0-0.5-0.1-0.7c0-0.3-0.1-0.5-0.3-0.7c-0.1-0.1-0.4-0.2-0.7-0.2h-1.3v2.3H258v-5.9H261.2z
				 M260.7,92.2c0.3,0,0.5-0.1,0.7-0.2c0.1-0.1,0.2-0.3,0.2-0.6c0-0.3-0.1-0.5-0.2-0.6c-0.1-0.1-0.4-0.2-0.7-0.2h-1.4v1.7H260.7z"/>
		</g>
	</g>
</g>
</svg>
