<svg width="13" height="23" viewBox="0 0 13 23" fill="none" xmlns="http://www.w3.org/2000/svg">
<g clip-path="url(#clip0)">
<path d="M13.0003 11.5086C12.9966 11.8436 12.8645 12.1649 12.6304 12.4085L2.21986 22.6192C1.97354 22.7471 1.692 22.7941 1.41652 22.7533C1.14104 22.7125 0.886115 22.586 0.689121 22.3925C0.492126 22.1989 0.363427 21.9485 0.321894 21.6778C0.280362 21.4072 0.32818 21.1306 0.458338 20.8886L9.86484 11.5086L0.387877 2.23246C0.207447 2.13879 0.0519231 2.00481 -0.0661764 1.8413C-0.184276 1.6778 -0.261651 1.48933 -0.292075 1.29108C-0.322498 1.09283 -0.305118 0.890329 -0.241335 0.699883C-0.177552 0.509436 -0.069148 0.336361 0.0751516 0.194593C0.219451 0.052824 0.395615 -0.0536805 0.589461 -0.116344C0.783308 -0.179009 0.989422 -0.196083 1.19121 -0.166193C1.393 -0.136303 1.58483 -0.0602857 1.75126 0.0557441C1.91768 0.171772 2.05405 0.324568 2.14939 0.501833L12.6304 10.5914C12.8686 10.8394 13.001 11.1676 13.0003 11.5086Z" fill="#93D0D3"/>
</g>
<defs>
<clipPath id="clip0">
<rect width="23" height="13" fill="white" transform="translate(0 23) rotate(-90)"/>
</clipPath>
</defs>
</svg>
