<svg xmlns="http://www.w3.org/2000/svg" viewBox="0 0 23.44 23.44"><defs><style>.cls-1{fill:#6d6d6d;}</style></defs><g id="Camada_2" data-name="Camada 2"><g id="Camada_1-2" data-name="Camada 1"><path class="cls-1" d="M20,23.44H3.49A3.5,3.5,0,0,1,0,20V3.49A3.5,3.5,0,0,1,3.49,0H20a3.5,3.5,0,0,1,3.49,3.49V20A3.5,3.5,0,0,1,20,23.44ZM3.49,1.5a2,2,0,0,0-2,2V20a2,2,0,0,0,2,2H20a2,2,0,0,0,2-2V3.49a2,2,0,0,0-2-2Z"/><path class="cls-1" d="M15.83,12.47H7.61a.75.75,0,0,1,0-1.5h8.22a.75.75,0,1,1,0,1.5Z"/><path class="cls-1" d="M11.72,16.58a.74.74,0,0,1-.75-.75V7.61a.75.75,0,0,1,1.5,0v8.22A.75.75,0,0,1,11.72,16.58Z"/></g></g></svg>