<svg xmlns="http://www.w3.org/2000/svg" viewBox="0 0 63.67 83.89"><defs><style>.cls-1{fill:#93d0d3;}</style></defs><g id="Camada_2" data-name="Camada 2"><g id="Camada_1-2" data-name="Camada 1"><path class="cls-1" d="M25.64,43.65a17.6,17.6,0,1,1,17.6-17.59A17.61,17.61,0,0,1,25.64,43.65Zm0-32.19a14.6,14.6,0,1,0,14.6,14.6A14.61,14.61,0,0,0,25.64,11.46Z"/><path class="cls-1" d="M49.79,83.89a1.5,1.5,0,0,1-1.5-1.5v-8a14.61,14.61,0,0,0-14.6-14.59H17.59A14.61,14.61,0,0,0,3,74.34v8a1.5,1.5,0,0,1-3,0v-8A17.61,17.61,0,0,1,17.59,56.75h16.1a17.62,17.62,0,0,1,17.6,17.59v8A1.5,1.5,0,0,1,49.79,83.89Z"/><path class="cls-1" d="M54.09,19.16a1.5,1.5,0,0,1-1.5-1.5V11.08H46a1.5,1.5,0,0,1,0-3h6.58V1.5a1.5,1.5,0,0,1,3,0V8.08h6.58a1.5,1.5,0,0,1,0,3H55.59v6.58A1.5,1.5,0,0,1,54.09,19.16Z"/></g></g></svg>