<svg xmlns="http://www.w3.org/2000/svg" viewBox="0 0 17.64 17.64"><defs><style>.cls-1{fill:#868686;}</style></defs><g id="Camada_2" data-name="Camada 2"><g id="Camada_1-2" data-name="Camada 1"><path class="cls-1" d="M8.82,17.64a8.82,8.82,0,1,1,8.82-8.82A8.83,8.83,0,0,1,8.82,17.64Zm0-16.14a7.32,7.32,0,1,0,7.32,7.32A7.32,7.32,0,0,0,8.82,1.5Z"/><path class="cls-1" d="M11.51,9.57H6.13a.75.75,0,1,1,0-1.5h5.38a.75.75,0,0,1,0,1.5Z"/><path class="cls-1" d="M8.82,12.26a.75.75,0,0,1-.75-.75V6.13a.75.75,0,1,1,1.5,0v5.38A.74.74,0,0,1,8.82,12.26Z"/></g></g></svg>