<svg xmlns="http://www.w3.org/2000/svg" viewBox="0 0 20.22 22.56"><defs><style>.cls-1{fill:#868686;}</style></defs><g id="Camada_2" data-name="Camada 2"><g id="Camada_1-2" data-name="Camada 1"><path class="cls-1" d="M17.13,22.56h-14A3.1,3.1,0,0,1,0,19.47v-14A3.1,3.1,0,0,1,3.09,2.34h14a3.1,3.1,0,0,1,3.09,3.09v14A3.1,3.1,0,0,1,17.13,22.56ZM3.09,3.84A1.59,1.59,0,0,0,1.5,5.43v14a1.59,1.59,0,0,0,1.59,1.59h14a1.59,1.59,0,0,0,1.59-1.59v-14a1.59,1.59,0,0,0-1.59-1.59Z"/><path class="cls-1" d="M14.79,6.18A.76.76,0,0,1,14,5.43V.75a.75.75,0,0,1,1.5,0V5.43A.75.75,0,0,1,14.79,6.18Z"/><path class="cls-1" d="M5.43,6.18a.76.76,0,0,1-.75-.75V.75a.75.75,0,0,1,1.5,0V5.43A.76.76,0,0,1,5.43,6.18Z"/><path class="cls-1" d="M19.47,10.86H.75a.75.75,0,0,1,0-1.5H19.47a.75.75,0,0,1,0,1.5Z"/><path class="cls-1" d="M7.77,17.88H5.43a.76.76,0,0,1-.75-.75V14.79A.76.76,0,0,1,5.43,14H7.77a.76.76,0,0,1,.75.75v2.34A.76.76,0,0,1,7.77,17.88Zm-1.59-1.5H7v-.84H6.18Z"/></g></g></svg>