<svg xmlns="http://www.w3.org/2000/svg" viewBox="0 0 26.06 23.73"><defs><style>.cls-1{isolation:isolate;}.cls-2{mix-blend-mode:darken;}.cls-3{fill:#ea6160;}</style></defs><g class="cls-1"><g id="Camada_2" data-name="Camada 2"><g id="Camada_1-2" data-name="Camada 1"><g class="cls-2"><path class="cls-3" d="M12.72,23.73,2,12.31A7.39,7.39,0,0,1,2.38,1.86C5.2-.75,9.47-.6,12.76,2.21a.44.44,0,0,0,.53,0c3.29-2.81,7.56-3,10.39-.35a7.39,7.39,0,0,1,.41,10.45ZM7.14,1.51A5.43,5.43,0,0,0,3.4,3a5.88,5.88,0,0,0-.34,8.33l9.69,10.28L23,11.27A5.9,5.9,0,0,0,22.66,3c-2.24-2.07-5.7-1.91-8.39.4a2,2,0,0,1-2.48,0A7.24,7.24,0,0,0,7.14,1.51Z"/></g></g></g></g></svg>