<svg xmlns="http://www.w3.org/2000/svg" viewBox="0 0 25.49 25.49"><defs><style>.cls-1{fill:#868686;}</style></defs><g id="Camada_2" data-name="Camada 2"><g id="Camada_1-2" data-name="Camada 1"><path class="cls-1" d="M24.51,13.73H21.9a1,1,0,0,1,0-2h.24l-9.39-9.4-9.4,9.4H3.6a1,1,0,0,1,0,2H1a1,1,0,0,1-.69-1.68L12.05.29a1,1,0,0,1,1.39,0L25.2,12.05a1,1,0,0,1-.69,1.68Z"/><path class="cls-1" d="M19.28,25.49H6.21a3.6,3.6,0,0,1-3.6-3.59V12.75a1,1,0,0,1,2,0V21.9a1.63,1.63,0,0,0,1.63,1.63H19.28a1.64,1.64,0,0,0,1.64-1.63V12.75a1,1,0,0,1,2,0V21.9A3.6,3.6,0,0,1,19.28,25.49Z"/><path class="cls-1" d="M16.67,25.49a1,1,0,0,1-1-1V16.67A1.65,1.65,0,0,0,14.05,15H11.44A1.65,1.65,0,0,0,9.8,16.67v7.84a1,1,0,1,1-2,0V16.67a3.61,3.61,0,0,1,3.6-3.6h2.61a3.6,3.6,0,0,1,3.6,3.6v7.84A1,1,0,0,1,16.67,25.49Z"/></g></g></svg>