<?xml version="1.0" encoding="utf-8"?>
<!-- Generator: Adobe Illustrator 24.2.3, SVG Export Plug-In . SVG Version: 6.00 Build 0)  -->
<svg version="1.1" id="Camada_1" xmlns="http://www.w3.org/2000/svg" xmlns:xlink="http://www.w3.org/1999/xlink" x="0px" y="0px"
	 viewBox="0 0 25.5 25.5" style="enable-background:new 0 0 25.5 25.5;" xml:space="preserve">
<style type="text/css">
	.st0{fill:#FFFFFF;}
</style>
<g id="Camada_2_1_">
	<g id="Camada_1-2">
		<path class="st0" d="M24.5,13.7h-2.6c-0.6,0-1-0.4-1-1s0.4-1,1-1h0.2l-9.4-9.4l-9.4,9.4h0.3c0.6,0,1,0.4,1,1s-0.4,1-1,1H1
			c-0.6,0-1-0.5-1-1c0-0.2,0.1-0.5,0.3-0.6L12.1,0.3c0.4-0.4,1-0.4,1.4,0l11.8,11.8c0.4,0.4,0.4,1-0.1,1.4
			C25,13.6,24.7,13.7,24.5,13.7z"/>
		<path class="st0" d="M19.3,25.5H6.2c-2,0-3.6-1.6-3.6-3.6v-9.1c0-0.6,0.4-1,1-1s1,0.4,1,1v9.1c0,0.9,0.7,1.6,1.6,1.6h13
			c0.9,0,1.6-0.7,1.6-1.6v-9.1c0-0.6,0.4-1,1-1s1,0.4,1,1v9.1C22.9,23.9,21.3,25.5,19.3,25.5C19.3,25.5,19.3,25.5,19.3,25.5z"/>
		<path class="st0" d="M16.7,25.5c-0.6,0-1-0.4-1-1v-7.8c0-0.9-0.7-1.7-1.6-1.7h-2.6c-0.9,0-1.6,0.7-1.6,1.7c0,0,0,0,0,0v7.8
			c0,0.6-0.4,1-1,1s-1-0.4-1-1v-7.8c0-2,1.6-3.6,3.6-3.6H14c2,0,3.6,1.6,3.6,3.6l0,0v7.8C17.6,25,17.2,25.5,16.7,25.5z"/>
	</g>
</g>
</svg>
