<svg xmlns="http://www.w3.org/2000/svg" viewBox="0 0 14.73 14.73"><defs><style>.cls-1{fill:#fff;}</style></defs><g id="Camada_2" data-name="Camada 2"><g id="Camada_1-2" data-name="Camada 1"><path class="cls-1" d="M9.32,14.73H2.1A2.1,2.1,0,0,1,0,12.63V5.41a2.1,2.1,0,0,1,2.1-2.1H4.51a.5.5,0,0,1,.5.5.5.5,0,0,1-.5.5H2.1A1.1,1.1,0,0,0,1,5.41v7.22a1.1,1.1,0,0,0,1.1,1.1H9.32a1.11,1.11,0,0,0,1.11-1.1V10.22a.5.5,0,1,1,1,0v2.41A2.11,2.11,0,0,1,9.32,14.73Z"/><path class="cls-1" d="M6.92,10.72H4.51a.5.5,0,0,1-.5-.5V7.82a.49.49,0,0,1,.15-.36L11,.64a2.2,2.2,0,0,1,3.11,3.12L7.27,10.58A.5.5,0,0,1,6.92,10.72ZM5,9.72h1.7l6.67-6.67a1.2,1.2,0,1,0-1.7-1.7L5,8Z"/><path class="cls-1" d="M12.53,5.11A.5.5,0,0,1,12.18,5L9.77,2.55a.5.5,0,0,1,0-.7.5.5,0,0,1,.71,0l2.41,2.4a.51.51,0,0,1,0,.71A.51.51,0,0,1,12.53,5.11Z"/></g></g></svg>