<svg xmlns="http://www.w3.org/2000/svg" viewBox="0 0 18.29 18.29"><defs><style>.cls-1{opacity:0.3;}.cls-2{fill:#6d6d6d;}</style></defs><g id="Camada_2" data-name="Camada 2"><g id="Camada_1-2" data-name="Camada 1"><g class="cls-1"><path class="cls-2" d="M9.14,18.29a9.15,9.15,0,1,1,9.15-9.15A9.16,9.16,0,0,1,9.14,18.29Zm0-16.79a7.65,7.65,0,1,0,7.65,7.64A7.65,7.65,0,0,0,9.14,1.5Z"/><path class="cls-2" d="M8.21,12.07l-2.4-2.4a.75.75,0,0,1,0-1.06.77.77,0,0,1,1.07,0L8.21,10l3.2-3.2a.74.74,0,0,1,1.06,0,.75.75,0,0,1,0,1.06Z"/></g></g></g></svg>