<svg xmlns="http://www.w3.org/2000/svg" viewBox="0 0 126.88 27.88"><defs><style>.cls-1{isolation:isolate;}.cls-2{fill:#93d0d3;}.cls-12,.cls-2,.cls-3,.cls-5,.cls-6,.cls-7,.cls-8{mix-blend-mode:darken;}.cls-3{fill:#fbc104;}.cls-4{fill:#e95c23;}.cls-5{fill:#ea6160;}.cls-6{fill:#c6c635;}.cls-7{fill:#c43280;}.cls-8{fill:#f3f4d2;}.cls-9{fill:#62b784;}.cls-10,.cls-9{mix-blend-mode:multiply;}.cls-10{fill:#83c289;}.cls-11,.cls-12{fill:#868686;}</style></defs><g class="cls-1"><g id="Camada_2" data-name="Camada 2"><g id="Camada_1-2" data-name="Camada 1"><polygon class="cls-2" points="13.76 13.84 10.17 10.28 10.21 10.32 10.21 10.32 13.75 13.85 13.76 13.84"/><polygon class="cls-2" points="10.17 10.28 10.06 10.16 10.05 10.17 10.21 10.32 10.21 10.32 10.17 10.28"/><polygon class="cls-3" points="13.76 13.85 13.76 13.84 13.75 13.85 13.76 13.85 13.76 13.85"/><path class="cls-4" d="M24.87,10.17l-.42-.41a5.22,5.22,0,0,0-7,.39h0a5.22,5.22,0,0,1,0,7.39l0,0,0,0a5.22,5.22,0,0,0,7,.35l.41-.41a5.17,5.17,0,0,0,0-7.35Z"/><path class="cls-5" d="M16.31,1.65a5.22,5.22,0,0,0-7.39,0h0l8.53,8.48h0v0h0a5.23,5.23,0,0,1,7-.38Z"/><path class="cls-3" d="M7.77,3.39A5.23,5.23,0,0,0,8.93,9.05l1.12,1.12h0L8.93,9A5.22,5.22,0,0,1,7.77,3.39Z"/><path class="cls-6" d="M13.76,13.85h0l-3.68,3.7,0,0A5.23,5.23,0,0,0,17,18l.44-.44Z"/><path class="cls-7" d="M17,9.71a5.22,5.22,0,0,0-6.92.43l0,0,3.7,3.68h0l3.68-3.7Z"/><path class="cls-8" d="M17.89,10.59a5.23,5.23,0,0,1-.4,6.93l0,0-3.7-3.68h0l3.68-3.7Z"/><path class="cls-7" d="M8.91,1.66h0A5.11,5.11,0,0,0,7.77,3.39,5.22,5.22,0,0,0,8.93,9l1.13,1.12v0A5.23,5.23,0,0,1,17,9.71l.45.44h0Z"/><path class="cls-9" d="M8.92,1.65h0a5.23,5.23,0,0,0-7.39,0h0a5.23,5.23,0,0,0,0,7.39l4.83,4.81,3.69-3.7L8.93,9A5.23,5.23,0,0,1,8.92,1.65Z"/><polygon class="cls-2" points="10.19 17.43 10.07 17.54 10.07 17.54 10.23 17.38 10.23 17.39 10.19 17.43"/><polygon class="cls-3" points="13.76 13.84 13.76 13.85 13.75 13.84 13.76 13.83 13.76 13.84"/><path class="cls-3" d="M16.38,26A5.23,5.23,0,0,1,9,26H9l8.48-8.53h0v0h0a5.23,5.23,0,0,0,7,.35Z"/><path class="cls-3" d="M7.82,24.32A5.22,5.22,0,0,1,9,18.66l1.11-1.12h0L9,18.67A5.22,5.22,0,0,0,7.82,24.32Z"/><path class="cls-6" d="M9,26.05H9a5.17,5.17,0,0,1-1.16-1.73A5.22,5.22,0,0,1,9,18.67l1.12-1.13v0A5.22,5.22,0,0,0,17,18l.45-.45h0Z"/><path class="cls-2" d="M9,26.06H9a5.23,5.23,0,0,1-7.39,0h0a5.23,5.23,0,0,1,0-7.39l4.8-4.82,3.71,3.69L9,18.67A5.22,5.22,0,0,0,9,26.06Z"/><polygon class="cls-10" points="6.37 13.87 10.06 10.17 13.76 13.85 10.08 17.56 6.37 13.87"/><path class="cls-11" d="M40.65,6.1V9h-3.2l0,7.86a2.13,2.13,0,0,0,.38,1.47,2.08,2.08,0,0,0,1.47.37l.71,0a6.17,6.17,0,0,0,.64-.09V22a10.69,10.69,0,0,1-1.23.12l-1.32,0A13.14,13.14,0,0,1,36.22,22a4.59,4.59,0,0,1-1.59-.53,2.79,2.79,0,0,1-1.1-1.13,4.15,4.15,0,0,1-.4-1.94L33.1,9H30.46V6.12H33.1l0-4.75h4.36l0,4.75Z"/><path class="cls-11" d="M46.88,6.08V9H47a5.3,5.3,0,0,1,.82-1.37,5.63,5.63,0,0,1,2.64-1.77A5,5,0,0,1,52,5.64a3.51,3.51,0,0,1,1,.15V9.84c-.21,0-.45-.08-.74-.11a7.94,7.94,0,0,0-.83,0,4.69,4.69,0,0,0-2,.4A3.63,3.63,0,0,0,48,11.19a4.44,4.44,0,0,0-.71,1.61,9,9,0,0,0-.21,2l0,7.15H42.78l0-15.87Z"/><path class="cls-11" d="M54.79,3.6V0h4.36V3.59Zm4.37,2.45,0,15.87H54.84l0-15.87Z"/><path class="cls-12" d="M62.14,20.9,62.11,6h4.14V8.15h.06a4.67,4.67,0,0,1,2-2A6.12,6.12,0,0,1,71,5.59,6.2,6.2,0,0,1,76.11,8a8,8,0,0,1,1.31,2.52,9.74,9.74,0,0,1,.45,3,11.87,11.87,0,0,1-.37,3.08,7.17,7.17,0,0,1-1.21,2.55,5.77,5.77,0,0,1-2.11,1.73,7.06,7.06,0,0,1-3.07.64,6.66,6.66,0,0,1-2.75-.59,4.39,4.39,0,0,1-2-1.86h-.06v2.09a4.27,4.27,0,0,0,.82,2.79A3.16,3.16,0,0,0,69.8,25a4.22,4.22,0,0,0,2-.48,2.5,2.5,0,0,0,1.2-1.71h4.32a4.46,4.46,0,0,1-.74,2.32A5.56,5.56,0,0,1,75,26.67a7.74,7.74,0,0,1-2.21.91,11,11,0,0,1-2.38.3A10.74,10.74,0,0,1,66,27.15a6.67,6.67,0,0,1-2.49-1.79,5.37,5.37,0,0,1-1.13-2.28A11,11,0,0,1,62.14,20.9ZM70,18.14a3,3,0,0,0,1.68-.43,3.5,3.5,0,0,0,1.09-1.11,4.62,4.62,0,0,0,.58-1.52,8.82,8.82,0,0,0,.16-1.7,7.35,7.35,0,0,0-.2-1.71,4.11,4.11,0,0,0-.65-1.44,3.39,3.39,0,0,0-1.11-1A3.13,3.13,0,0,0,70,8.87a3.66,3.66,0,0,0-1.78.41,3.08,3.08,0,0,0-1.13,1.08,4.45,4.45,0,0,0-.61,1.55,9.14,9.14,0,0,0-.18,1.85,5.93,5.93,0,0,0,.23,1.65,4.43,4.43,0,0,0,.7,1.39,3.38,3.38,0,0,0,1.17,1A3.29,3.29,0,0,0,70,18.14Z"/><path class="cls-11" d="M95.31,23a5.37,5.37,0,0,1-1.11,2.29,6.65,6.65,0,0,1-2.49,1.8,10.49,10.49,0,0,1-4.35.75A10.37,10.37,0,0,1,85,27.55a8.08,8.08,0,0,1-2.22-.9,5.56,5.56,0,0,1-1.66-1.58,4.67,4.67,0,0,1-.76-2.32h4.33a2.49,2.49,0,0,0,1.2,1.7,4.18,4.18,0,0,0,2.06.47,3.17,3.17,0,0,0,2.69-1.11,4.29,4.29,0,0,0,.8-2.79V18.92h-.06a4.32,4.32,0,0,1-2,1.86,6.65,6.65,0,0,1-2.75.61,7.09,7.09,0,0,1-3.07-.62,5.78,5.78,0,0,1-2.12-1.72,7.22,7.22,0,0,1-1.22-2.54,11.89,11.89,0,0,1-.39-3.09,9.78,9.78,0,0,1,.44-3,7.71,7.71,0,0,1,1.29-2.52,6.22,6.22,0,0,1,5.06-2.39,6.12,6.12,0,0,1,2.75.57,4.79,4.79,0,0,1,2,2h.06V6h4.15l0,14.86A10.87,10.87,0,0,1,95.31,23Zm-6-5.26a3.48,3.48,0,0,0,1.16-1,4.17,4.17,0,0,0,.69-1.4,5.9,5.9,0,0,0,.22-1.64,8.63,8.63,0,0,0-.19-1.86,4.74,4.74,0,0,0-.61-1.55,3.34,3.34,0,0,0-1.14-1.07,3.66,3.66,0,0,0-1.78-.39,3.13,3.13,0,0,0-1.58.37,3.42,3.42,0,0,0-1.11,1,4.25,4.25,0,0,0-.64,1.45,7.26,7.26,0,0,0-.19,1.7,8.83,8.83,0,0,0,.17,1.7,4.42,4.42,0,0,0,.59,1.52A3.37,3.37,0,0,0,86,17.67a3.05,3.05,0,0,0,1.69.43A3.56,3.56,0,0,0,89.33,17.73Z"/><path class="cls-11" d="M103.72,18a3.93,3.93,0,0,0,2.83.94,3.81,3.81,0,0,0,2.27-.67A2.72,2.72,0,0,0,110,16.88h3.84A7.36,7.36,0,0,1,111,21a8.38,8.38,0,0,1-4.6,1.24,9.25,9.25,0,0,1-3.38-.59,7.13,7.13,0,0,1-2.56-1.7,7.84,7.84,0,0,1-1.61-2.64,9.35,9.35,0,0,1-.58-3.37,9.45,9.45,0,0,1,.57-3.32,7.83,7.83,0,0,1,1.66-2.66,7.68,7.68,0,0,1,2.55-1.77,8.23,8.23,0,0,1,3.3-.65,7.44,7.44,0,0,1,3.53.77,7,7,0,0,1,2.48,2.1,8.55,8.55,0,0,1,1.41,3,11.46,11.46,0,0,1,.31,3.53l-11.45,0A4.49,4.49,0,0,0,103.72,18Zm4.91-8.37a3.07,3.07,0,0,0-2.38-.85,3.74,3.74,0,0,0-1.74.36,3.24,3.24,0,0,0-1.1.88,3.16,3.16,0,0,0-.58,1.1,5.18,5.18,0,0,0-.2,1.05l7.1,0A5.12,5.12,0,0,0,108.63,9.63Z"/><path class="cls-11" d="M120.79,5.89v3h.06a5.3,5.3,0,0,1,.82-1.37,5.6,5.6,0,0,1,1.2-1.08,6,6,0,0,1,1.44-.7,5.3,5.3,0,0,1,1.6-.24,3.16,3.16,0,0,1,1,.15V9.65c-.21,0-.45-.08-.74-.11a7.94,7.94,0,0,0-.83,0,4.69,4.69,0,0,0-2,.4A3.52,3.52,0,0,0,122,11a4.3,4.3,0,0,0-.72,1.61,9,9,0,0,0-.21,2l0,7.15h-4.36l0-15.87Z"/></g></g></g></svg>