<svg xmlns="http://www.w3.org/2000/svg" viewBox="0 0 25.31 28.2"><defs><style>.cls-1{fill:#868686;}</style></defs><g id="Camada_2" data-name="Camada 2"><g id="Camada_1-2" data-name="Camada 1"><path class="cls-1" d="M24.22,22.41H1.08a1.08,1.08,0,0,1-.53-2,4.74,4.74,0,0,0,2.34-3.47V12.65A11.22,11.22,0,0,1,8.74,3.28a4,4,0,0,1,7.83,0,11.17,11.17,0,0,1,5.84,9.32v4.32a4.75,4.75,0,0,0,2.35,3.47,1.08,1.08,0,0,1-.54,2ZM3.85,20.25H21.46a6.87,6.87,0,0,1-1.21-3.13V12.65A9,9,0,0,0,15.08,5a1.08,1.08,0,0,1-.62-1,1.81,1.81,0,1,0-3.61,0,1.1,1.1,0,0,1-.62,1A9,9,0,0,0,5.06,12.7V17a.53.53,0,0,1,0,.13A6.85,6.85,0,0,1,3.85,20.25ZM9.76,4h0Z"/><path class="cls-1" d="M12.65,28.2a5.42,5.42,0,0,1-5.42-5.42V21.33a1.09,1.09,0,0,1,2.17,0v1.45a3.26,3.26,0,0,0,6.51,0V21.33a1.09,1.09,0,0,1,2.17,0v1.45A5.43,5.43,0,0,1,12.65,28.2Z"/></g></g></svg>