<svg xmlns="http://www.w3.org/2000/svg" viewBox="0 0 17.69 15.9"><defs><style>.cls-1{fill:#868686;}</style></defs><g id="Camada_2" data-name="Camada 2"><g id="Camada_1-2" data-name="Camada 1"><path class="cls-1" d="M8,5.1a.73.73,0,0,1-.53-.22L4.35,1.81,1.28,4.88A.75.75,0,0,1,.22,3.82L3.82.22a.75.75,0,0,1,1.06,0l3.6,3.6a.75.75,0,0,1,0,1.06A.74.74,0,0,1,8,5.1Z"/><path class="cls-1" d="M4.35,9.6a.76.76,0,0,1-.75-.75V.75a.75.75,0,0,1,1.5,0v8.1A.76.76,0,0,1,4.35,9.6Z"/><path class="cls-1" d="M13.35,15.9a.75.75,0,0,1-.53-.22l-3.6-3.6A.75.75,0,0,1,10.28,11l3.07,3.06L16.41,11a.75.75,0,0,1,1.07,1.06l-3.6,3.6A.77.77,0,0,1,13.35,15.9Z"/><path class="cls-1" d="M13.35,15.9a.75.75,0,0,1-.75-.75v-9a.75.75,0,0,1,1.5,0v9A.76.76,0,0,1,13.35,15.9Z"/></g></g></svg>