<svg xmlns="http://www.w3.org/2000/svg" viewBox="0 0 18.17 18.17"><defs><style>.cls-1{fill:#868686;}</style></defs><g id="Camada_2" data-name="Camada 2"><g id="Camada_1-2" data-name="Camada 1"><path class="cls-1" d="M7.25,14.37a7.13,7.13,0,1,1,7.12-7.12A7.13,7.13,0,0,1,7.25,14.37Zm0-12.87A5.75,5.75,0,1,0,13,7.25,5.76,5.76,0,0,0,7.25,1.5Z"/><path class="cls-1" d="M7.25,14.49a7.25,7.25,0,1,1,7.24-7.24A7.25,7.25,0,0,1,7.25,14.49ZM7.25.25a7,7,0,1,0,7,7A7,7,0,0,0,7.25.25Zm0,12.87a5.87,5.87,0,1,1,5.87-5.87A5.88,5.88,0,0,1,7.25,13.12Zm0-11.49a5.62,5.62,0,1,0,5.62,5.62A5.62,5.62,0,0,0,7.25,1.63Z"/><path class="cls-1" d="M17.36,18a.66.66,0,0,1-.49-.2l-5.52-5.51a.69.69,0,0,1,1-1l5.51,5.52a.68.68,0,0,1,0,1A.65.65,0,0,1,17.36,18Z"/><path class="cls-1" d="M17.36,18.17a.78.78,0,0,1-.58-.24l-5.51-5.51a.81.81,0,0,1,0-1.15.83.83,0,0,1,1.15,0l5.51,5.51a.81.81,0,0,1,0,1.15A.78.78,0,0,1,17.36,18.17Zm-5.52-6.89a.59.59,0,0,0-.4.16.57.57,0,0,0,0,.8L17,17.75a.56.56,0,0,0,.79,0,.52.52,0,0,0,.17-.39.54.54,0,0,0-.17-.4l-5.51-5.52A.59.59,0,0,0,11.84,11.28Z"/></g></g></svg>