<svg xmlns="http://www.w3.org/2000/svg" viewBox="0 0 22.96 22.96"><defs><style>.cls-1{isolation:isolate;}.cls-2{mix-blend-mode:darken;}.cls-3{fill:#868686;}</style></defs><g class="cls-1"><g id="Camada_2" data-name="Camada 2"><g id="Camada_1-2" data-name="Camada 1"><g class="cls-2"><path class="cls-3" d="M11.48,12.46a1,1,0,0,1-.44-.1L.54,7.11a1,1,0,0,1,0-1.76L11,.1a1,1,0,0,1,.88,0l10.5,5.25a1,1,0,0,1,0,1.76l-10.5,5.25A1,1,0,0,1,11.48,12.46ZM3.18,6.23l8.3,4.15,8.3-4.15-8.3-4.15Z"/><path class="cls-3" d="M11.48,17.71a1,1,0,0,1-.44-.1L.54,12.36a1,1,0,1,1,.88-1.76l10.06,5,10.06-5a1,1,0,1,1,.88,1.76l-10.5,5.25A1,1,0,0,1,11.48,17.71Z"/><path class="cls-3" d="M11.48,23a1,1,0,0,1-.44-.11L.54,17.61A1,1,0,0,1,.1,16.29a1,1,0,0,1,1.32-.44l10.06,5,10.06-5a1,1,0,0,1,1.32.44,1,1,0,0,1-.44,1.32l-10.5,5.24A1,1,0,0,1,11.48,23Z"/></g></g></g></g></svg>