<svg xmlns="http://www.w3.org/2000/svg" viewBox="0 0 14.5 14.5"><defs><style>.cls-1{fill:#62b784;}</style></defs><g id="Camada_2" data-name="Camada 2"><g id="Camada_1-2" data-name="Camada 1"><path class="cls-1" d="M13.5,7.47a1,1,0,0,1-1-.86,5.34,5.34,0,0,0-6-4.55A5.39,5.39,0,0,0,3.16,3.91H4.91a1,1,0,0,1,0,2H1a1,1,0,0,1-1-1V1A1,1,0,0,1,2,1V2.21A7.37,7.37,0,0,1,6.22.08a7.32,7.32,0,0,1,8.27,6.25,1,1,0,0,1-.85,1.13Z"/><path class="cls-1" d="M13.5,14.5a1,1,0,0,1-1-1V12.28A7.32,7.32,0,0,1,0,8.17a1,1,0,0,1,2-.28,5.34,5.34,0,0,0,6,4.55,5.41,5.41,0,0,0,3.34-1.85H9.59a1,1,0,0,1,0-2H13.5a1,1,0,0,1,1,1V13.5A1,1,0,0,1,13.5,14.5Z"/></g></g></svg>