<svg xmlns="http://www.w3.org/2000/svg" viewBox="0 0 25.99 25.99"><defs><style>.cls-1{fill:#6d6d6d;}</style></defs><g id="Camada_2" data-name="Camada 2"><g id="Camada_1-2" data-name="Camada 1"><path class="cls-1" d="M13,26a3.13,3.13,0,0,1-3.08-2.43,1.48,1.48,0,0,0-1.78-1.09,1.44,1.44,0,0,0-.42.18,3.13,3.13,0,0,1-3.9-.47,3.12,3.12,0,0,1-.47-3.9,1.49,1.49,0,0,0-.49-2,1.68,1.68,0,0,0-.42-.17,3.17,3.17,0,0,1,0-6.17,1.5,1.5,0,0,0,.91-.67,1.4,1.4,0,0,0,.17-1.11,1.28,1.28,0,0,0-.17-.42,3.12,3.12,0,0,1,.47-3.9,3.12,3.12,0,0,1,3.9-.47,1.48,1.48,0,0,0,2.2-.91,3.17,3.17,0,0,1,6.17,0,1.47,1.47,0,0,0,.67.91,1.4,1.4,0,0,0,1.11.17,1.28,1.28,0,0,0,.42-.17,3.12,3.12,0,0,1,3.9.47,3.12,3.12,0,0,1,.47,3.9,1.47,1.47,0,0,0,.49,2,1.57,1.57,0,0,0,.42.18,3.17,3.17,0,0,1,0,6.17,1.49,1.49,0,0,0-1.09,1.78,1.57,1.57,0,0,0,.18.42,3.18,3.18,0,0,1-4.37,4.37,1.49,1.49,0,0,0-2,.49,1.54,1.54,0,0,0-.17.42A3.13,3.13,0,0,1,13,26ZM8.47,20.73a3.18,3.18,0,0,1,3.09,2.43,1.48,1.48,0,0,0,2.87,0,3,3,0,0,1,.37-.9,3.18,3.18,0,0,1,4.37-1.06,1.48,1.48,0,0,0,2-2,3,3,0,0,1-.38-.91,3.12,3.12,0,0,1,.38-2.4,3.17,3.17,0,0,1,2-1.43,1.48,1.48,0,0,0,0-2.87,3.22,3.22,0,0,1-.9-.37A3.18,3.18,0,0,1,21.2,6.82,1.42,1.42,0,0,0,21,5a1.42,1.42,0,0,0-1.81-.22,3.31,3.31,0,0,1-.91.38,3.18,3.18,0,0,1-3.83-2.34,1.48,1.48,0,0,0-2.87,0h0a3.18,3.18,0,0,1-4.74,2A1.42,1.42,0,0,0,5,5a1.42,1.42,0,0,0-.22,1.81,3.17,3.17,0,0,1-2,4.74,1.48,1.48,0,0,0,0,2.87,3.22,3.22,0,0,1,.9.37,3.18,3.18,0,0,1,1.06,4.37A1.42,1.42,0,0,0,5,21a1.42,1.42,0,0,0,1.81.22,3.1,3.1,0,0,1,1.65-.47Zm2.26-18.1h0Z"/><path class="cls-1" d="M13,17.89a4.9,4.9,0,1,1,4.9-4.9A4.9,4.9,0,0,1,13,17.89ZM13,9.8A3.2,3.2,0,1,0,16.19,13,3.19,3.19,0,0,0,13,9.8Z"/></g></g></svg>