<svg xmlns="http://www.w3.org/2000/svg" viewBox="0 0 31.33 31.17"><defs><style>.cls-1{fill:#6d6d6d;}</style></defs><g id="Camada_2" data-name="Camada 2"><g id="Camada_1-2" data-name="Camada 1"><path class="cls-1" d="M26.67,31.17h-22A4.68,4.68,0,0,1,0,26.5V22.83a1,1,0,0,1,2,0V26.5a2.68,2.68,0,0,0,2.67,2.67h22a2.67,2.67,0,0,0,2.66-2.67V22.83a1,1,0,0,1,2,0V26.5A4.67,4.67,0,0,1,26.67,31.17Z"/><path class="cls-1" d="M6.5,11.17a1,1,0,0,1-.71-1.71L15,.29a1,1,0,0,1,1.41,0l9.17,9.17a1,1,0,1,1-1.41,1.41L15.67,2.41,7.21,10.87A1,1,0,0,1,6.5,11.17Z"/><path class="cls-1" d="M15.67,24a1,1,0,0,1-1-1V1a1,1,0,0,1,2,0V23A1,1,0,0,1,15.67,24Z"/></g></g></svg>